<svg version="1.1" id="_x32_" xmlns="http://www.w3.org/2000/svg" xmlns:xlink="http://www.w3.org/1999/xlink" width="48px" height="48px" viewBox="0 0 30.72 30.72" xml:space="preserve"><style type="text/css">
	.st0{fill:#000000;}
</style><g><path class="st0" d="M22.717 12.568c-0.392 -2.301 -0.82 -4.8 -0.951 -5.511 -0.319 -1.734 -2.603 -2.704 -4.299 -1.454 -0.89 0.656 -1.686 0.703 -2.107 0.703s-0.89 0.094 -2.107 -0.703c-1.763 -1.153 -3.981 -0.28 -4.299 1.454 -0.13 0.711 -0.559 3.21 -0.951 5.511C3.234 13.165 0 14.327 0 15.661c0 1.946 6.877 3.523 15.36 3.523 8.483 0 15.36 -1.577 15.36 -3.523 0 -1.334 -3.234 -2.496 -8.002 -3.093"/><path class="st0" d="m6.547 19.827 0.453 5.191c2.374 0.403 4.784 0.613 7.182 0.665L15.36 24.077l1.177 1.606c2.398 -0.052 4.808 -0.262 7.182 -0.665l0.453 -5.191c-2.902 0.562 -5.874 0.81 -8.813 0.81 -2.939 0 -5.909 -0.248 -8.813 -0.81m4.654 4.293c-2.008 -0.095 -2.134 -2.506 -2.134 -2.506l4.507 0.88s-0.366 1.721 -2.374 1.626m10.451 -2.506s-0.126 2.411 -2.134 2.506c-2.008 0.096 -2.374 -1.626 -2.374 -1.626z"/></g></svg>