<svg width="48px" height="48px" viewBox="0 -2.625 48 48" version="1.1" xmlns="http://www.w3.org/2000/svg" xmlns:xlink="http://www.w3.org/1999/xlink" preserveAspectRatio="xMidYMid"><g><path d="M39.466 13.842a32.25 32.25 0 0 0 -1.545 -0.487c0.087 -0.356 0.167 -0.708 0.239 -1.054 1.17 -5.678 0.405 -10.252 -2.207 -11.758 -2.504 -1.444 -6.599 0.062 -10.735 3.661a32.063 32.063 0 0 0 -1.195 1.097 29.25 29.25 0 0 0 -0.795 -0.734C18.892 0.718 14.548 -0.904 11.939 0.606 9.437 2.054 8.696 6.354 9.749 11.735a32.063 32.063 0 0 0 0.355 1.59c-0.615 0.175 -1.208 0.361 -1.776 0.559C3.245 15.656 0 18.433 0 21.313c0 2.975 3.484 5.958 8.777 7.768a27.375 27.375 0 0 0 1.298 0.406 31.5 31.5 0 0 0 -0.377 1.713c-1.004 5.287 -0.22 9.486 2.275 10.925 2.577 1.486 6.902 -0.041 11.114 -3.723a27.375 27.375 0 0 0 1.002 -0.923 31.5 31.5 0 0 0 1.297 1.184c4.08 3.51 8.109 4.928 10.601 3.485 2.575 -1.49 3.411 -6.001 2.325 -11.488a27.188 27.188 0 0 0 -0.288 -1.283c0.304 -0.09 0.602 -0.183 0.892 -0.279 5.503 -1.823 9.083 -4.771 9.083 -7.785 0 -2.891 -3.35 -5.686 -8.534 -7.471m-1.193 13.309c-0.262 0.087 -0.532 0.171 -0.806 0.252 -0.608 -1.923 -1.427 -3.968 -2.431 -6.081 0.957 -2.063 1.746 -4.081 2.336 -5.992 0.491 0.142 0.968 0.292 1.427 0.45 4.442 1.529 7.151 3.79 7.151 5.532 0 1.856 -2.926 4.264 -7.677 5.839m-1.971 3.906c0.48 2.426 0.549 4.62 0.231 6.335 -0.286 1.541 -0.861 2.568 -1.572 2.98 -1.513 0.876 -4.748 -0.262 -8.236 -3.265a29.438 29.438 0 0 1 -1.207 -1.101c1.353 -1.479 2.704 -3.199 4.024 -5.109 2.321 -0.206 4.513 -0.543 6.501 -1.002q0.147 0.593 0.26 1.161M16.364 40.222c-1.478 0.522 -2.655 0.537 -3.367 0.127 -1.514 -0.873 -2.143 -4.244 -1.285 -8.766a29.438 29.438 0 0 1 0.35 -1.594c1.966 0.435 4.142 0.748 6.468 0.936 1.328 1.869 2.719 3.587 4.12 5.091a25.313 25.313 0 0 1 -0.914 0.842c-1.862 1.628 -3.729 2.783 -5.373 3.364M9.441 27.14c-2.341 -0.8 -4.274 -1.84 -5.598 -2.974 -1.191 -1.019 -1.792 -2.032 -1.792 -2.853 0 -1.748 2.606 -3.977 6.952 -5.492 0.527 -0.184 1.079 -0.357 1.652 -0.52 0.601 1.954 1.389 3.997 2.339 6.062 -0.963 2.096 -1.762 4.172 -2.369 6.149a25.313 25.313 0 0 1 -1.185 -0.371m2.321 -15.799c-0.902 -4.61 -0.303 -8.088 1.205 -8.96 1.606 -0.93 5.157 0.396 8.899 3.719a27 27 0 0 1 0.72 0.665c-1.395 1.498 -2.773 3.202 -4.089 5.06 -2.257 0.209 -4.418 0.545 -6.405 0.995a30 30 0 0 1 -0.33 -1.479m20.705 5.113a65.25 65.25 0 0 0 -1.46 -2.401c1.531 0.194 2.999 0.451 4.377 0.765 -0.414 1.326 -0.929 2.712 -1.536 4.133a71.438 71.438 0 0 0 -1.381 -2.498m-8.444 -8.224c0.946 1.025 1.893 2.169 2.825 3.41a60.375 60.375 0 0 0 -5.673 -0.001c0.933 -1.23 1.888 -2.372 2.849 -3.409M15.525 16.468a60.563 60.563 0 0 0 -1.355 2.482c-0.597 -1.416 -1.108 -2.809 -1.525 -4.154 1.369 -0.306 2.83 -0.557 4.352 -0.747a60.375 60.375 0 0 0 -1.472 2.418m1.515 12.254c-1.572 -0.176 -3.055 -0.413 -4.424 -0.711 0.424 -1.369 0.946 -2.791 1.556 -4.238a60.188 60.188 0 0 0 1.361 2.484c0.486 0.84 0.99 1.663 1.507 2.465m7.039 5.818c-0.972 -1.048 -1.941 -2.209 -2.888 -3.456 0.919 0.036 1.856 0.054 2.808 0.054 0.978 0 1.946 -0.022 2.897 -0.064 -0.935 1.27 -1.878 2.432 -2.818 3.466m9.787 -10.841c0.642 1.462 1.182 2.877 1.612 4.223 -1.392 0.318 -2.894 0.573 -4.478 0.763a71.625 71.625 0 0 0 1.474 -2.442 65.063 65.063 0 0 0 1.392 -2.543m-3.168 1.519a67.313 67.313 0 0 1 -2.303 3.715 61.688 61.688 0 0 1 -4.396 0.154c-1.494 0 -2.947 -0.046 -4.346 -0.137a58.125 58.125 0 0 1 -2.346 -3.721h0a57.563 57.563 0 0 1 -2.048 -3.868 58.125 58.125 0 0 1 2.042 -3.869l0 0a57.563 57.563 0 0 1 2.327 -3.705c1.427 -0.108 2.891 -0.164 4.371 -0.164H24c1.486 0 2.952 0.057 4.379 0.166a61.688 61.688 0 0 1 2.313 3.693 67.313 67.313 0 0 1 2.069 3.851 61.875 61.875 0 0 1 -2.063 3.885m4.23 -22.898c1.607 0.927 2.232 4.665 1.222 9.567q-0.097 0.47 -0.216 0.954c-1.992 -0.46 -4.154 -0.802 -6.418 -1.014 -1.319 -1.878 -2.686 -3.586 -4.058 -5.064a30.188 30.188 0 0 1 1.104 -1.013c3.544 -3.084 6.856 -4.301 8.365 -3.431M24 17.027c2.367 0 4.286 1.919 4.286 4.286s-1.919 4.286 -4.286 4.286 -4.286 -1.919 -4.286 -4.286 1.919 -4.286 4.286 -4.286" fill="#00D8FF"/></g></svg>